<svg xmlns="http://www.w3.org/2000/svg" viewBox="0 0 100 100">
  <defs>
    <linearGradient id="grad1" x1="0%" y1="0%" x2="100%" y2="100%">
      <stop offset="0%" style="stop-color:#667eea;stop-opacity:1" />
      <stop offset="100%" style="stop-color:#764ba2;stop-opacity:1" />
    </linearGradient>
    <linearGradient id="grad2" x1="100%" y1="0%" x2="0%" y2="100%">
      <stop offset="0%" style="stop-color:#f093fb;stop-opacity:1" />
      <stop offset="100%" style="stop-color:#f5576c;stop-opacity:1" />
    </linearGradient>
  </defs>
  
  <!-- Background circle -->
  <circle cx="50" cy="50" r="45" fill="url(#grad1)" opacity="0.2"/>
  
  <!-- Left speech bubble (source language) -->
  <path d="M 30 35 Q 25 35 25 40 L 25 50 Q 25 55 30 55 L 38 55 L 35 60 L 38 55 L 45 55 Q 50 55 50 50 L 50 40 Q 50 35 45 35 Z" 
        fill="url(#grad1)" 
        stroke="#667eea" 
        stroke-width="2"/>
  
  <!-- Right speech bubble (target language) -->
  <path d="M 55 45 Q 50 45 50 50 L 50 60 Q 50 65 55 65 L 63 65 L 65 70 L 63 65 L 70 65 Q 75 65 75 60 L 75 50 Q 75 45 70 45 Z" 
        fill="url(#grad2)" 
        stroke="#f5576c" 
        stroke-width="2"/>
  
  <!-- Abstract text lines in left bubble -->
  <line x1="30" y1="42" x2="45" y2="42" stroke="white" stroke-width="2" stroke-linecap="round"/>
  <line x1="30" y1="48" x2="42" y2="48" stroke="white" stroke-width="2" stroke-linecap="round"/>
  
  <!-- Abstract text lines in right bubble -->
  <line x1="55" y1="52" x2="70" y2="52" stroke="white" stroke-width="2" stroke-linecap="round"/>
  <line x1="55" y1="58" x2="67" y2="58" stroke="white" stroke-width="2" stroke-linecap="round"/>
  
  <!-- Arrow showing translation direction -->
  <path d="M 48 40 L 52 37 L 52 43 Z" fill="#f5576c" opacity="0.8"/>
</svg>

